<svg width="420" height="92" viewBox="0 0 420 92" fill="none" xmlns="http://www.w3.org/2000/svg">
  <defs>
    <linearGradient id="g1" x1="16" y1="10" x2="84" y2="82" gradientUnits="userSpaceOnUse">
      <stop stop-color="#2563EB"/>
      <stop offset="1" stop-color="#0EA5E9"/>
    </linearGradient>
  </defs>
  <rect x="12" y="10" width="72" height="72" rx="18" fill="url(#g1)"/>
  <path d="M34 56V40h8v16h-8Zm0 10v-6h8v6h-8Zm18 0c-6.6 0-12-5.4-12-12s5.4-12 12-12c3.7 0 7 1.6 9.2 4.2l-5.8 4.8c-.8-1-2.1-1.6-3.4-1.6-2.4 0-4.4 2-4.4 4.6 0 2.6 2 4.6 4.4 4.6 1.3 0 2.6-.6 3.4-1.6l5.8 4.8A11.8 11.8 0 0 1 52 66Z" fill="white"/>
  <text x="102" y="58" font-family="Sora, Poppins, Segoe UI, Arial, sans-serif" font-size="44" font-weight="700" fill="#0F172A">ai.guru</text>
</svg>
