<svg width="64" height="64" viewBox="0 0 64 64" fill="none" xmlns="http://www.w3.org/2000/svg">
  <defs>
    <linearGradient id="p" x1="6" y1="6" x2="58" y2="58" gradientUnits="userSpaceOnUse">
      <stop stop-color="#2563EB"/>
      <stop offset="1" stop-color="#0EA5E9"/>
    </linearGradient>
  </defs>
  <rect x="4" y="4" width="56" height="56" rx="14" fill="url(#p)"/>
  <path d="M19 36V24h6v12h-6Zm0 8v-5h6v5h-6Zm14 0c-5.8 0-10.5-4.7-10.5-10.5S27.2 23 33 23c3.2 0 6 1.4 8 3.6l-5 4a4.7 4.7 0 0 0-3-1.3 4.2 4.2 0 0 0-4.2 4.2c0 2.3 1.9 4.2 4.2 4.2 1.1 0 2.3-.5 3-1.3l5 4A10.4 10.4 0 0 1 33 44Z" fill="white"/>
</svg>
