<svg xmlns="http://www.w3.org/2000/svg" viewBox="0 0 900 620" role="img" aria-labelledby="title desc">
  <title id="title">Mock test analytics preview with topic performance trends</title>
  <desc id="desc">Analytics chart visualization for online mock tests across IT student and government exam categories</desc>
  <rect width="900" height="620" fill="#f7f8fc"/>
  <rect x="70" y="60" width="760" height="500" rx="26" fill="#ffffff" stroke="#dde1ec" stroke-width="4"/>
  <rect x="120" y="108" width="250" height="34" rx="10" fill="#0ea5e9"/>
  <rect x="120" y="165" width="660" height="14" rx="7" fill="#d6e5f1"/>
  <rect x="120" y="192" width="620" height="14" rx="7" fill="#d6e5f1"/>
  <rect x="120" y="219" width="570" height="14" rx="7" fill="#d6e5f1"/>
  <line x1="130" y1="470" x2="760" y2="470" stroke="#d7ddea" stroke-width="4"/>
  <line x1="130" y1="280" x2="130" y2="470" stroke="#d7ddea" stroke-width="4"/>
  <polyline points="140,430 220,400 300,420 380,350 460,330 540,300 620,250 700,220" fill="none" stroke="#8500ac" stroke-width="8" stroke-linecap="round" stroke-linejoin="round"/>
  <circle cx="700" cy="220" r="10" fill="#8500ac"/>
  <rect x="580" y="120" width="200" height="90" rx="14" fill="#f5edfb" stroke="#e6d8f0"/>
  <rect x="600" y="145" width="150" height="12" rx="6" fill="#a94bcc"/>
  <rect x="600" y="168" width="110" height="12" rx="6" fill="#c8b1d8"/>
</svg>
